<?xml version="1.0" encoding="UTF-8"?>
<svg id="_レイヤー_1" data-name="レイヤー_1" xmlns="http://www.w3.org/2000/svg" version="1.1" viewBox="0 0 160 100">
  <!-- Generator: Adobe Illustrator 30.3.0, SVG Export Plug-In . SVG Version: 2.1.3 Build 182)  -->
  <defs>
    <style>
      .st0 {
        fill: #ebd66b;
      }

      .st1 {
        fill: #b59769;
      }

      .st2 {
        fill: #863;
      }

      .st3 {
        fill: #ceb482;
      }

      .st4 {
        fill: #b9765e;
      }

      .st5 {
        fill: #ece085;
      }

      .st6 {
        fill: #cfb352;
      }

      .st7 {
        fill: #57140a;
      }

      .st8 {
        fill: #f2e285;
      }

      .st9 {
        fill: #e9dc92;
      }

      .st10 {
        fill: #dac788;
      }

      .st11 {
        fill: #faeea5;
      }

      .st12 {
        fill: #b7976e;
      }

      .st13 {
        fill: #c4ab7a;
      }

      .st14 {
        fill: #bc9f71;
      }

      .st15 {
        fill: #f4efbf;
      }

      .st16 {
        fill: #f2e797;
      }

      .st17 {
        fill: #ecda79;
      }

      .st18 {
        fill: #e2afa1;
      }

      .st19 {
        fill: #ddc75e;
      }

      .st20 {
        fill: #e4531d;
      }

      .st21 {
        fill: #dcd297;
      }

      .st22 {
        fill: #e1d79d;
      }

      .st23 {
        fill: #9b7b38;
      }

      .st24 {
        fill: #d1938a;
      }

      .st25 {
        fill: #e0b8a7;
      }

      .st26 {
        fill: #ce8e85;
      }

      .st27 {
        fill: #ddb0a6;
      }

      .st28 {
        fill: #530202;
      }

      .st29 {
        fill: #d7b6a6;
      }

      .st30 {
        fill: #dda49d;
      }

      .st31 {
        fill: #c97f74;
      }

      .st32 {
        fill: #ebe088;
      }

      .st33 {
        fill: #a37f3f;
      }

      .st34 {
        fill: #f1e277;
      }

      .st35 {
        fill: #bb9d6e;
      }

      .st36 {
        fill: #e9cd56;
      }

      .st37 {
        fill: #c2a859;
      }

      .st38 {
        fill: #e4bbb1;
      }

      .st39 {
        fill: #ab874d;
      }

      .st40 {
        fill: #f5efb4;
      }

      .st41 {
        fill: #c2ad6c;
      }

      .st42 {
        fill: #bea576;
      }

      .st43 {
        fill: #dbc79f;
      }

      .st44 {
        fill: #cba390;
      }

      .st45 {
        fill: #e8dc97;
      }

      .st46 {
        fill: #f4e782;
      }

      .st47 {
        fill: #d9c86e;
      }

      .st48 {
        fill: #8e735e;
      }

      .st49 {
        fill: #e8d26e;
      }

      .st50 {
        fill: #dea797;
      }

      .st51 {
        fill: #fafcfb;
      }

      .st52 {
        fill: #e1cb62;
      }

      .st53 {
        fill: #fbf8d3;
      }

      .st54 {
        fill: #edd96c;
      }

      .st55 {
        fill: #e0bba1;
      }

      .st56 {
        fill: #9d743d;
      }

      .st57 {
        fill: #d7cbaf;
      }

      .st58 {
        fill: #ba9a6c;
      }

      .st59 {
        fill: #8c6136;
      }

      .st60 {
        fill: #dab3a5;
      }

      .st61 {
        fill: #dcc68d;
      }

      .st62 {
        fill: #cfbd9d;
      }

      .st63 {
        fill: #7e572d;
      }

      .st64 {
        fill: #faf3b2;
      }

      .st65 {
        fill: #f1e180;
      }

      .st66 {
        fill: #e8dd93;
      }

      .st67 {
        fill: #b2945a;
      }

      .st68 {
        fill: #b7966a;
      }

      .st69 {
        fill: #ca7c77;
      }

      .st70 {
        fill: #f1e37f;
      }

      .st71 {
        fill: #dbbba6;
      }

      .st72 {
        fill: #fbf8cd;
      }

      .st73 {
        fill: #987838;
      }

      .st74 {
        fill: #977046;
      }

      .st75 {
        fill: #f1eec0;
      }

      .st76 {
        fill: #b4975f;
      }

      .st77 {
        fill: #d0a890;
      }

      .st78 {
        fill: #d3b755;
      }

      .st79 {
        fill: #fbf5c6;
      }

      .st80 {
        fill: #956729;
      }

      .st81 {
        fill: #e3cc66;
      }

      .st82 {
        fill: #dccd97;
      }

      .st83 {
        fill: #c3a577;
      }

      .st84 {
        fill: #e6d36b;
      }

      .st85 {
        fill: #d69d93;
      }

      .st86 {
        fill: #f0dece;
      }

      .st87 {
        fill: #dcb6a9;
      }

      .st88 {
        fill: #ebe6e8;
      }

      .st89 {
        fill: #f0e482;
      }

      .st90 {
        fill: #8c6036;
      }

      .st91 {
        fill: #e4a84b;
      }

      .st92 {
        fill: #cf8b81;
      }

      .st93 {
        fill: #ebda71;
      }

      .st94 {
        fill: #b6b3b7;
      }

      .st95 {
        fill: #faf8d0;
      }

      .st96 {
        fill: #f3efc3;
      }
    </style>
  </defs>
  <g id="_生成オブジェクト" data-name="生成オブジェクト">
    <path class="st46" d="M129.39,14.85c-.87-.95-1.62-1.64-2.21-2.61-.41-.68-1.02-1.24-1.24-2.09,2.13,2.58,4.46,4.73,7.1,6.77,1.77,1.37,3.45,2.63,5.02,4.23,2.31,2.37,4.14,5.03,5.03,8.18-.2.26.14.42.24.15-.45-2.07-1.43-3.94-2.67-5.66-.76-1.05-1.45-2.02-2.11-3.22-1.18-2.15-3.24-3.96-4.66-5.36-.34-.43-.75-1.17-1.43-1.49.7-.03,1.27.17,1.78.65,3.11,2.93,6.3,6.03,7.95,9.86l.79,1.83c.12.28.29.47.53.47l.71,2.92.03.49c0,.09.21.21.3.07l-.36-1.6c.08-.06.48-.02.57.11.46.91.48,1.89.68,2.87.04.22.44.43.39.87-.03.25.32.56.5.48.09.38.1.89.34,1.32.44.78.84,1.66.23,2.43-.55-.6-1.45-.97-1.45-.97-.02.01-.86,1.29-1,2.04-.1.54-.39.97-.54,1.4-.43-.2-.98-.2-1.33.05-.63-.14-1.24-.22-1.88-.73l-.42.63c.2.21,0,.28.02.35.03.12.29.08.34.06,0,.04-.07.2-.03.24.14.16.62,0,.74.21.09.16,0,.33-.13.51-1.48,1.97-1.17,4.44-.86,3.93.41-.69,1.06.65,1.66,1.54.07.42.36.79.32,1.23-.21.02-.29-.11-.33-.21-.02-.04-.15-.01-.1.09-.37.38-.87.5-1.52.31l-.95,1.54c-.32.52-.74.92-1.35,1.16l.51-1.95c-1.19,1.04-2.31,1.72-3.63,2.4l-1.63.84c-1.09.26-2.09.6-3.11.99-2.06.79-3.24-1.5-3.42-.78-.07.28-.03.4.22.54.51.29.89.74,1.3,1.16,1.09,1.12,1.75,2.69,1.07,4.21-.96,2.15-2.85,3.53-4.98,4.23l-2,.66c-.22.07-.59.13-.76-.04-.13-.13-.16-.44-.19-.76-1.19.78-1.09,2.53-2.02,3.65l-.89-4.62c-.06-.33,0-.78-.38-.8.26-3.53-1.56-6.65-4.83-8.19-.85-.4-1.52-1.02-1.78-1.97.33.33.74-.19,1-.21,2.45,1,6.87.73,6.62-.27-.1-.4-2.1-.32-2.74-2.12-.62-.19-1.01-.71-1.16-1.22-.95-.55-.8-1.6-.98-2.44-.09-.41-.66-.79-.43-1.41.12-.32.12-.74-.01-1.04l3.84-3.68c.72-.69,1.23-1.4,1.89-2.1,2.59-2.71,5.72-4.39,9.3-5.47l2.2-.43c-.49-.17-.77-.31-.76-.72,2.11-.39,3.05-.41,4.82.96.08.06.21.11.25.15.04.05.19.05.23-.07.03-.11-.25-.18-.33-.25-1.75-1.4-3.01-1.25-4.95-1.74.65-.17,1.36-.54,1.98-.46,1.56.22,2.74,1.39,3.82,2.51-.99-2.14-3.84-3.07-6.35-3.67,1.15-.38,2.29-.15,3.52,0l1.04.47c-.42-.65-.93-1.1-1.51-1.36l-1.01-.44c3.09.12,5.59,2.11,7.53,4.91-.47-1.41-1.62-2.44-2.75-3.33.18-.14.27-.13.26-.33-.02-.72-1.54-3.09-3.06-2.97-.36.03-.57.22-.69.56-1.02-.89-2.3-1.39-3.6-2.16.58-.19,1.21.05,1.84.23l2.31.66-3.5-2.56c.67-.03,1.07.44,1.66.61l-1.14-1.16-1.82-1.88c2.6,1.31,4.8,3.12,6.54,5.43l3.17,4.87c0-.08-.03-.2.07-.29l-3.09-4.9c-1.29-2.04-3.33-3.35-5.22-4.61.09-.19-.08-.3-.09-.46.56.35,1.22.54,1.97.68l-2.73-1.75c.05-.09.05-.14.07-.21.26.16.62.31,1.04.29l-2.34-1.59c.09-.11.05-.22-.01-.31.39.13.63.59,1.16.66ZM137.07,34.75l-1.57.07c-.87.04-1.96,1.18-1.71,2.58.16.88.68,1.66,1.51,1.97,1.13.41,2.24.53,3.28-.21.2.19.34-.04.27-.08-.05-.02-.16-.14-.29-.28.62-.41.7-1.09.71-1.73,0-.44-.12-.68-.29-1.07-.33-.75-1.03-1.28-1.91-1.24ZM130.58,47.28c.08.89,2.81-.21,2.93-1.41.01-.14-.1-.27-.34-.32.18-.37.45-.52.72-.9-.33-.18-.34-.35-.34-.54,0-.14.18-.29.23-.4-.17-.22-.4-.41-.33-.63l.18-.57c.07-.23-.44-.36-.49-.43.08-.3.24-.48.34-.66.08-.16-.17-.38-.31-.47l.68-.72c-.29.04-.38-.26-.3-.35.06-.06.27.07.16-.2-.06-.16.2-.34.33-.43l-1.08-1.71c-3-1.12-5.57-.32-7.57,2.13-.12.15-.28.39-.15.59.07.12.23.21.41.42-.6.23-.97.57-1.11,1.05-.11.4.04.89.41,1.24-.56.3-1.04.88-.77,1.45.15.3.53.5.62.87.15.58.87.8,1.2,1.19.46.56.85.73,1.56.85.37.06.75.28,1.19.3.18.01.39.16.63.15.72-.01,1.17-.82,1.2-.51Z"/>
    <path class="st59" d="M126.12,1.61c1.88,4.6,4.63,8.53,8.36,12.05,2.65,2.5,5.12,4.91,7.38,7.8,2.46,3.14,3.82,6.75,4.56,10.54.19.97.38,1.88.88,2.75.37.64.05,1.4-.14,1.94.76.65.38,1.77.62,2.34,1.91,3.74,1.17,8.47-2.86,10.5.2-1.16.7-1.99.47-3.06-.8.69-1.56.99-2.62,1.09-.71,4.31-5.45,5.68-6.02,7.6-.85,2.89-2.17,5.51-4.28,7.74-1.32,1.39-2.36,2.78-3.33,4.42-3.57,6.01-6.62,10.1-13.14,13.18l-1.42,4.5c-.57,1.79-.64,2.89-.36,4.72l6.39,1.75c2.47.94,4.82,2.09,7.58,2.29.88.06,1.76-.09,2.53.02l1.21.17c1.65.23,2.98,1.81,2.47,3.44-.63-1.12-1.37-1.92-2.62-2.05-.11.55-.44.86-.79.97-1.39.42-1.72-.83-2.61-.52.22.77.14,1.56-.48,2.1-.06-.87-.24-1.52-.81-2.09-.22.62-.51.75-.95.8-.38.05-.75-.29-1.01-.47-1.55-.06-2.9-.64-4.32-1.29-1.1-.49-2.32.11-3.27.72l-1.44.53c-1.33,1.15-3.04.49-3.05.16l-.02-.54c-.74-.17-1.56.26-2.15.86-.01-1.43,1.35-2.22,2.67-2.05s2.07.64,3.47-1.1c-1.08-.5-2.17-.66-3.28-.45-1.85.35-4.15-.06-4.59-1.91-.23.11-.37.19-.51.18l-1.07-2.8c-.12-.13-.54-.12-.49-.43.02-.14-.25-.33,0-.53-.33-.07-.4.03-.52.18-.32-.28-.51-.54-.68-1.06-.04.11-.22.19-.34.19-.09,0-.16-.24-.21-.31l-.21-.26s-.15-.12-.24.09l-.43-.82s-.02-.18.02-.26c.02-.05.11-.07.16,0,.04.06.12.12.15.35.14.05.32-.1.35-.02.06.15.18.33.26.41.12-.18.37-.19.44-.11.06.07.17.12.31.25l.38.35s.34-.21.35-.12c.04.52.51.79.85.98.41,1.11.53,2.46,1.16,3.47.29-.13.37-.33.6-.58.32.54.81.56,1.25.75.4.18.94.51,1.44.21.67-.4,1.03-1.18,1.02-1.91.24.11.36.35.76.24-.17-.68-.25-1.21-.25-1.74,0-.56.02-1.17.22-1.8l1.66-5.11c-.27-.1-.44.09-.54.13-3.39,1.56-6.91,2.92-10.6,3.92-.21.06-.38.09-.39.31,0,.11.07.28.24.29-.04.22-.28.13-.34.05l-.32-.41c-2.03.42-3.94.94-5.97,1.06-.71.5-1.45.78-2.24,1.15l-3.09,1.45c-1.06.5-1.74,1.3-2.3,2.39l1.8,1.97c1.83,2.01,3.89,3.95,6.71,2.98l1.18-.11c.99-.21,1.92.21,2.55.97,1.98-.26,4.24.86,3.98,2.66-.72-.79-1.88-1.37-2.96-1.19-.11.24-.08.75-.47.83-.7.32-1.48.23-2.16-.23-.75.29-1.51.31-2.25,0-.71.33-1.35.06-2-.05-1.27-.2-2.35-.61-3.49-1.17-2.05-1-5.25,1.38-7.63.87-1.09-.23-1.95.27-2.82.04-.61-.17-.72-.74-.86-1.13-.71-.35-1.76.03-2.57.58.33-1.69,2.05-2.05,3.55-1.75.46.09.97-.13,1.48.19,1.04.67,2.22.28,3.28-.12.88-.33,1.77-.56,2.33-1.43-1.74-2.42-5.1-1.72-4.88-5.46-.28-.35-.55-.8-.27-1.4l1.19-2.55c-1.89-.08-3.67-.19-5.42-.74l-2.05-.39c-.47-.09-.71-.46-1.09-.58l-2.21-.75c-.12-.04-.24-.2-.21-.3.02-.08.15-.09.26-.25-1.3-.06-3.12.06-4.28.28-3.54.68-7.03,1.04-10.56,1.28l-3.44.03c-5.79,2.34-11.64,4.24-17.75,5.5-1.47.3-2.72.46-4.16.3l-3.93.48c-1.81.22-2.82.16-4.6-.08-3.9.73-7.66,1.55-11.6,1.82-1.8.12-3.56.21-5.46-.19l5.67-1.39,10.06-2.52s-.1-.08-.11-.14l-5.82,1.08-9.24,1.29-2.09.21c-1.26.13-2.54.13-3.79.02-.65-.06-1.37-.05-1.81-.6l7.53-1.82,13.28-3.32,8.62-2.26,9.43-2.58,7.59-2.24c-.76-.4-1.47-.29-2.13-.34l-2.1-.18-2.85-.15-2.59-.16c-1.65-.1-4.42-.45-4.64-1.4s1.52-1.62,2.84-2.1c-.22-.26-.53-.31-.58-.48-.23-.84,2.14-1.54,3.49-2,3.93-1.34,7.93-1.9,11.94-2.74l4.82-1.74c3.5-1.27,6.96-2.25,10.48-3.05,2.84-2.53,6.13-4.01,9.46-5.03l6.88-4.76c4.05-2.8,8.26-4.85,12.82-6.64,5.23-2.05,8.6-5.57,14.97-6.93,1.22-.26,2.21-.92,3.17-1.75l1.6-1.39c2.07-2.37,4.35-4.46,7.01-6.15,2.41-1.54,5.03-2.36,7.7-2.94l-.9-.37c-.48-.2.47-.62,1.73-.93l-2.94-.76c.86-.55,1.71-.5,2.71-.64-.59-.35-1.53-.31-1.92-.59-.12-.09-.06-.26.06-.31.07-.02.14-.03.23.02.21.03.38.26.84.18-.23-.15-.38-.37-.49-.63.83-.34,1.69-.37,2.69-.36-1.37-1.21-3.26-1.67-4.75-2.79,1.36-.21,2.48.19,3.78.5l-2.85-2.22,1.51.02c-1.64-1.27-3.18-2.38-4.38-4.05l3.21,1.99c.33.21.62.46.94.58,1.89,1.27,3.94,2.57,5.22,4.61l3.09,4.9c-.1.09-.07.21-.07.29l-3.17-4.87c-1.74-2.31-3.94-4.12-6.54-5.43l1.82,1.88,1.14,1.16c-.59-.17-.99-.63-1.66-.61l3.5,2.56-2.31-.66c-.63-.18-1.26-.42-1.84-.23,1.3.77,2.58,1.27,3.6,2.16.19.17.47.28.64.69-1.08-.14-1.98-.26-3.12.03.43.54.91.2,1.36.21,1.76.05,3.35.83,4.61,1.82,1.13.89,2.28,1.92,2.75,3.33-1.94-2.81-4.44-4.8-7.53-4.91l1.01.44c.59.26,1.1.71,1.51,1.36l-1.04-.47c-1.23-.16-2.37-.39-3.52,0,2.51.6,5.36,1.53,6.35,3.67-1.08-1.12-2.26-2.29-3.82-2.51-.62-.09-1.33.29-1.98.46,1.94.49,3.2.34,4.95,1.74.09.07.37.14.33.25-.04.12-.19.12-.23.07-.03-.04-.17-.09-.25-.15-1.77-1.36-2.71-1.35-4.82-.96-5.9,1.1-9.92,4.58-14.19,9.11l-1.59,1.37c-.92.79-1.94,1.28-3.07,1.56-2.18.54-4.27,1.26-6.31,2.4l-6.69,3.75c1.2-.05,2.08-.61,3.12-.72l.75-.08c.12,0,.21.08.19.13-6.29,1.32-12.31,3.79-17.78,7.47l-6.59,4.43c-.41.28-.9.48-1.27,1.07,2.47,1.27,7.67-1.1,9.72-2.44.81-.53,1.01-1.71,2.04-2.08-.99,1.18-3.02,3.37-1.88,3.76,1.72.58,5.2-1.92,7.19-3.44.24-.18.48-.58.83-.49.05.15-.31.34-.43.42l-3.21,2.36c-1.48,1.09-4.53,2.24-4.93,1.07-.12-.34.04-.68.11-1.18-2.38,1.39-4.77,2.45-7.53,2.77-.75.09-1.66-.09-2.1-.51-.04-.08-.05-.21-.2-.26-.11-.04-.18.02-.36.08-3.07,1-5.92,2.53-8.46,4.54-.1.08-.19.27-.22.34-.06.15.44.39,1.07.44.54.04,1.09-.07,1.69-.18l6.74-1.19c.04.07,0,.17-.07.18l-6.18,1.15c-1.11.21-2.3.42-3.43-.2-1.56,1.03-5.14,3.47-4.41,4.65.16.25.56.57.99.61,1.03.09,2.14.18,3.15-.01l3.22-.62c.15-.03.34-.19.55-.14.09.02.23-.05.25.15l-3.13.72-1.46.17c-2.12.25-3.42.23-4.16-1.38-.08-.17.11-.19.38-.73-.7.38-1.28.45-1.94.66l-4.17,1.3-4.32,2.39c-.84.46-1.56,1.12-1.96,2.01.14.4.43.51.75.83l12.53-.06c.59,0,1.18-.24,1.75-.18l2.83.04c.02.2-.2.28-.32.26-.55-.17-1.17.02-1.78.03l-5.59.14-9.01.05c-.44,0-1.03-.34-1.21-.62-.86-1.33,2.88-3.35,4.56-4.28l-5.62,1.35-2.14.8c0-.05,0-.1-.04-.17-.06-.07.02-.21.11-.17.08.03.31.16.44-.15-3.91.32-7.74,1.16-11.54,2.65-.52.2-1.41.59-1.44,1.16-.02.63,1.06.8,1.51.87l2.26.37,1.99.15,2.86.15,2.58.16,4.55.55,10.71.82,8.07.07,4.15-.04.46-.17c.94.01,1.9.09,2.89-.13-.78-.34-1.79-.45-2.15-1.18-.33-.66-.64-.9-1.38-.98-1.56-.18-3.03-.76-4.22-1.71-.23.2-.56.2-.56-.05.41.21.65-.13.38-.39-.55-.38-1.13-1.05-1.7-1.28-.85-.12-1.78.06-2.58.2l-2.59.44-1.07.11-2.38.3c-1.5.19-3.2.19-3.24-.68-.07-1.45,3.74-3.53,5.24-4.41l-3.47,2.48c-.69.47-1.28,1.07-1.67,1.87.64.85,1.64.62,2.53.53l1.81-.18,4.52-.62c-1.93-.43-3.89-1.09-3.34-2.71.22-.65.62-1.41,1.34-1.64-.45.74-1.31,1.36-1.12,2.22.16.73.97,1.15,1.61,1.34,3.79,1.1,8.71-.24,11.99-1.91.28-.15.46-.48.8-.33-2.28,1.57-4.98,2.45-7.98,2.84,1.6,1.42,4.05,2.04,6.02,1.81l1.5-.17c2.83-.72,5.31-2.13,7.73-3.87.32-.27.46.21.14.16-2.27,1.73-4.67,3.07-7.39,3.83-2.13.6-4.16.38-6.34-.31,1.3,1.26,3.09,1.71,4.86,1.98.7.48,1.45.79,2.28,1.05,2.27.4,4.5-.19,6.45-1.4l2.96-1.82,1.15-.85c-.29.75-.99,1-1.59,1.38l-2.43,1.54-2.3,1.03-.35.04c-.08.01-.17.17-.15.26-.32-.15-.47-.02-.83-.01l-3.16.02c-.32,0-.71-.35-1.13-.22,1.09.97,2.57,1.02,4.01,1.3,2.28.45,4.55-.34,6.51-1.33l2.28-1.15,1.43-.83c.03.06.04.14.02.22l-1.29.78-3.11,1.61c-.63.33-1.44.32-2.15.91,2.75.56,5.66.46,8.18-.75,1.49-.72,2.72-1.71,3.99-2.57.44-.29.79-.76,1.34-.99-.1-.38.38-.24.24,0-1.9,1.7-3.95,2.99-6.23,4.21.58.52,1.27.55,1.99.47l1.27-.15c7.09-1.54,11.58-4.69,17.18-9.68-2.86,3.16-6.36,5.67-10.05,7.53-2.11,1.06-4.28,1.63-6.47,2.3,1.01.13,1.91.01,2.87-.17,5.98-1.12,11.25-5.11,15.38-9.56-1-.14-1.67-.29-2.26-.81-.29-.25-.44-.82-.84-1.04-.38-.17-.85-.18-1.1-.49-.79-1-.06-2.77.84-3.51l3.14-2.57c.21.18.02.31-.03.42-2.04,1.22-5.03,3.73-3.72,5.45.26.34.79.47,1.26.55.4.89,1.12,1.63,2.14,1.71,1.12-.47,2.07-1.2,2.74-2.11-.37.09-.58.31-.82.46-.18.11-.3.03-.35-.16,1.11-.42,1.93-1.33,2.61-2.25,1.07-1.46,1.73-3.18,2.02-4.97.2-1.21-.1-2.44-.47-3.59-.48-1.47-1.44-2.75-2.73-3.57l-2.29-1.45c-.52-.33-1.19-1.6-.74-1.71.26.95.93,1.58,1.78,1.97,3.27,1.54,5.1,4.66,4.83,8.19-.11,1.51-.66,3.03-1.37,4.38-.95,1.82-2.45,3.23-3.89,4.81-2.49,2.72-5.04,5.18-8.22,7.11-3.75,2.29-7.98,3.81-12.37,3.23-1.01.12-1.98-.01-2.77-.6-1.33.42-2.61.56-3.98.62-1.37.08-2.67-.16-3.92-.62-1.09.21-2.12.26-3.18-.05l-5.04.27-6.07.27c-.09.25-.27.27-.39.34.03-.1.22-.22.21-.39l-4.53-.09c-2.49-.05-4.9-.06-7.4-.4l-6.21-.67-4.81,1.55c-13,3.81-26.2,7.19-39.39,10.41-.66-.12-1.34.23-2.01.35.35.15.66.2.95.2l3.8-.02,1.78-.16,1.95-.29c9.57-1.2,18.95-2.99,28.17-5.57l5.59-1.8c-1.59.91-3.32,1.36-5.08,1.87l-8.12,2.35-6.27,1.67-6.21,1.56-8.46,2.02h3.76c4.35-.4,8.52-1.17,12.78-2.18s7.9-1.93,11.79-3.22l5.18-1.72c.21-.07.44-.09.56-.25l2.02-.65,6.64-2.5.13.18-5.47,2.13-3.66,1.31-6.72,2.25-5.57,1.62-4.85,1.23c1.15.37,2.21.2,3.33.05l2.48-.33c7.14-1.36,13.97-3.51,20.45-6.25l6.85-2.89c.05.2-.05.32-.14.35l-.42.14-8.93,3.72c-4.74,1.98-9.56,3.52-14.58,4.68,1.34.11,2.49-.26,3.74-.55,6.69-1.53,13.07-3.67,19.35-6.48l5.42-2.42,1.88-.81-1.3.83-8.16,3.7,2.8-.02,3.36-.3,9.77-1.32-1.07-.44c-.09-.04-.27-.03-.31-.08-.05-.05-.02-.21.08-.25.06-.03.17,0,.24,0,1.2.53,2.95.2,4.47.2l-2.71.52,2.99.39c-.7.39-1.29.16-1.97.31,1.52.69,3.03.7,4.7.94l-1.92.18c1.27.51,2.59.41,4.06.25-.35.31-.75.27-1.11.44,1.31.21,2.39-.05,3.54-.18l-1.1.6c.9.14,1.64-.05,2.49-.27l.27-1.09c.23.2.22.69-.03.98.28.11.36-.08.51-.17-.4,1.8-2.19,3.47-1.48,4.13.34.65.62,1.9,1.19,2.4,1.05.93,2.21.19,3.33-.89.06.19.03.41.32.61.52-1.54,2-2.31,1.86-2.64l.3-.11s.13.21.05.45c1.74-.81,3.48-1.68,4.92-3.13.04.51-.44.63-.63,1.03l2.5-1.49c1.43-.85,2.5-2.07,3.56-3.21-.85,1.75-2.38,2.86-3.99,4.06,7.64-1.27,17.92-4.84,23.47-9.73,3.22-2.84,5.66-6.96,7.97-10.7-.61.16-.92.99-1.3.92-.12-.02.15-.24.1-.35.44-.2.7-.66,1.06-1.01l2.08-2.02c3.85-3.75,4.28-8.24,5.48-9.21l2.37-1.92c1.25-1.01,2.41-2.38,2.61-3.82-.2-.29-.26-.86-.44-1.12-.04-.11.09-.14.1-.09.04.1.12.24.33.21.04-.44-.25-.81-.32-1.23-.03.07-.04.19.03.27s.18.11.27.07c.07-.03.2-.2.13-.36l-1.1-2.94c.13-.52.38-.92.29-1.44-.18-1.01,1.79-1.03,2.28-2.39.15-.43.44-.86.54-1.4.14-.75.99-2.03,1-2.04,0,0,.9.36,1.45.97.62-.77.22-1.65-.23-2.43-.24-.43-.25-.94-.34-1.32l-.76-3.18c-.76-2.53-1.75-4.96-3.4-7.02.11-.18-.08-.5-.23-.49-.15.21.11.45.23.49.98,1.85,1.7,3.81,2.03,5.86l.36,1.6c-.1.14-.3.02-.3-.07l-.03-.49-.71-2.92c-.83-3.42-2.89-6.53-5.52-9.1l-3.04-2.96c-3.19-3.11-5.95-6.41-8-10.27.56,2.17,1.59,4.06,2.93,5.8.24.31.59.42.69.87.09.36.57.62.78.9-.2.01-.38.13-.36.14.36.18.12.41-.15.35l1.49,1.01c-.35.06-.27.19-.22.23.16.13.31.2.35.22.67.32,1.09,1.07,1.43,1.49,1.42,1.41,3.48,3.21,4.66,5.36.66,1.2,1.34,2.17,2.11,3.22,1.25,1.71,2.22,3.59,2.67,5.66-.1.27-.44.11-.24-.15-.88-3.15-2.71-5.8-5.03-8.18-1.56-1.6-3.25-2.86-5.02-4.23-2.63-2.04-4.96-4.19-7.1-6.77.22.85.82,1.4,1.24,2.09.59.97,1.33,1.66,2.21,2.61-.53-.07-.78-.52-1.16-.66-.23-.08-3.59-4.84-3.83-6.67,1.92,2.63,3.79,5.09,6.31,7.12l5.85,4.7,1.55,1.22c0,.21.04.43.31.54.1-.34-.16-.45-.31-.54-1.23-2.4-3.29-3.84-5.22-5.96-.94-1.03-2.03-1.87-2.83-3.06.25-.13.43.07.67.1-.57-.39-1.04-.84-1.43-1.4.19,0,.3.21.59.11-.12-.23-.36-.36-.5-.48-1.55-2.22-3.22-5.42-3.26-8.26ZM133.17,25.48l-1.17-.6c-.37-.19-.73-.32-1.21-.32l.93.61c.32.21,1,.3,1.45.3ZM146.41,39.01c.08.07.12.41.14.33.44-.36.71-.36.83-.56.56-.93-.39-2.26-1.53-2.72-.26-.11-.43.21-.35.4.05.11-.01.32.16.36-.28,0-.49.15-.59.45-.13.39-.05.74-.01,1.09.02.19.03.37,0,.57l-1.03.04c.07.36.1.61-.08.72l-.47.29c-.2.12-.28.29-.23.44.11.36.91.25.94.18l.09-.25c.1.2.27.21.33.17s.13-.12.11-.36c.29.37.5.07.71.03.35-.07.48-.38.45-.64-.01-.09.27-.19.29-.26s-.11-.16-.14-.23c.1-.05.31-.12.39-.04ZM147.46,39.24c-.16-.2-.41.21-.53.32-1.95,1.8-4.78,1.01-5.02,2.6.25,1.06,1.25,2.02,2,2.74.37.36.92.19,1.33.1.8,1.18.49,2.43.25,3.88,1.17-.81,2.33-1.93,2.43-3.2.85-1.82.8-4.82-.47-6.43ZM143.76,45.21c-.48-.4-.93-.84-1.26-1.25-.18-.22-.25-.67-.6-.85.11.79.3,1.43.62,2.04s.19,1.34.17,2.15c1.35-.12,2.88-.78,2.64-1.53-.21-.67-.99-.09-1.57-.57ZM38.96,72.99l3.01-.77,6.7-1.12,7.1-1.74,3.11-1.04c1.28-.43,2.88-.52,4.01-1.26,1.36-1.01,2.49-2.21,3.99-3.18l-7.19,1.99-5.7,2.15c1.32.19,2.8-.19,4.08-.11.26-.19.4.14.12.26l-2.58.1c-4.43.42-8.67,1.21-13.02,2.39-1.99.54-3.81.98-5.74,2.08.51.72,1.38.45,2.11.26ZM85.9,85.24s-.09-.09-.09-.09c-.28-.13-.45.13-.65.19-.15.04-.05.16,0,.15.28.03.51-.12.74-.25ZM130.57,93.97c-2.5.23-4.87-.09-7.14-1.07-2.24-.97-4.42-1.68-6.78-2.25l-2.55-.61c-.1-.02-.25-.21-.45-.11-.09.04-.12.2-.08.34.02.08-.03.15-.12.15-.25.01-.32.3-.55.52l-.59.56c-1.07.18-1.7-.42-2.66-.59.04,1.61,2.32,2.06,4.03,1.74,1.12-.21,2.31-.12,3.36.37.91.43-1.08,1.98-1.83,1.93s-1.7.2-1.79,1.14c.64.71,1.98.23,2.7-.24.66-.43,1.4-.47,2.06-.96.81-.59,1.93-.69,2.77-.33,1.24.53,2.52,1.11,3.9,1.24.68.07.69.43,1.3.53.18.03.64-.23.55-.47-.12-.34-.37-.61-.21-.99.15.09.22.24.2.4.65.34,1.09.85,1.43,1.64.39-1.09-.51-2.23-1.71-2.37s-2.51-.06-3.7-.94c-.21-.15-.49-.25-.44-.55.4.41.95.63,1.49.68l1.08.12c-.6.36.49-.05.61.18.85-.07,1.4.41,2.11.49l.82.96.81-.07c.5.65,1.45.95,2.05.39.16-.15.21-.32.12-.49-.05-.11-.21-.11-.31-.15-.28-.17-.56-.64-.49-1.17ZM89.38,90.81c-.7.67-1.57,1.16-2.48,1.02-.76-.12-1.1-.94-1.6-1.39-.23.84.25,1.41.81,1.75l2.96,1.81c.59.36,1.07.89,1.11,1.54-.49-.02-.73.39-1.16.6-4.15,2.12-4.76.68-5.83.58-.11-.01-.26.13-.13.28-.29.24-.86.45-1.03.87-.23.6,1.5.83,1.58.77.47-.31.95-.42,1.46-.25.29.1.78.25,1.06.22.25-.18.48-.11.67-.16,1.02-.24,2.13-.44,3.15-.86,2.77-1.14,3.51.81,6.7,1.12.09,0,.35.16.5.1.08-.03.16-.09.1-.26.16.05.35.05.37.44.27-.3.58-.22.97-.21.7.28,1.41.27,2.12-.08.64.58,1.47.68,2.16.27.36-.73-.79-.45-.98-1.85-3.95,1.29-8.14-.93-10.53-4.13l-.95-1.02-1.05-1.19ZM134.16,96.39c-.27-1.59-1.79-2.44-3.37-2.21.16,1.32,1.85.38,3.37,2.21ZM113.72,94.92c-.59-.26-1.56-.14-1.96.58,1.16-.3,1.94.27,1.96-.58ZM101.75,96.83c-.61-.46-1.39-.7-2.12-.36-.14.06.15.37.43.37h1.69ZM99.45,97.12c.1-.27-.22-.73-.53-.7-.45.05-.81.18-1.3.45.6.27,1.13.28,1.83.25ZM82.61,96.89c-.84-.37-1.91-.28-2.65.45,1.58-.6,2.06.63,2.65-.45ZM100.47,97.35c.07-.09.22-.23.54-.23-.2-.22-.52-.11-.72-.08-.03.15.15.36.18.31ZM105.74,98.67c-.77-1.25-2.17-1.52-3.55-1.32.04.37.48.91.79.87,1.03-.15,1.74.11,2.76.46Z"/>
    <path class="st6" d="M104.33,85.51l.16-.02s-.02-.18.02-.26c.02-.05.11-.07.16,0,.04.06.12.12.15.35.14.05.32-.1.35-.02.06.15.18.33.26.41.12-.18.37-.19.44-.11.06.07.17.12.31.25l.38.35s.34-.21.35-.12c.04.52.51.79.85.98.41,1.11.53,2.46,1.16,3.47.29-.13.37-.33.6-.58.32.54.81.56,1.25.75.16-.36-.12-.51-.27-.75-.51-.83-.62-1.79-.5-2.78.37.43.43.99,1,1.41-.03-1.48.1-2.79.85-3.96.92-1.42,2.88-1.99,2.74-2.8.3,0,.35-.15.53-.43.12-.18.12-.37-.04-.66-3.39,1.56-6.91,2.92-10.6,3.92-.21.06-.38.09-.39.31,0,.11.07.28.24.29Z"/>
    <path class="st63" d="M130.23,17.07c.56.35,1.22.54,1.97.68l-2.73-1.75c-.22-.14-.44-.35-.78-.35.48.59.97,1.06,1.54,1.42Z"/>
    <path class="st2" d="M129.54,15.79c.26.16.62.31,1.04.29l-2.34-1.59c.21.56.78.97,1.3,1.29Z"/>
    <path class="st62" d="M129.83,24.33c.21.03.38.26.84.18-.23-.15-.38-.37-.49-.63l-.34.45Z"/>
    <path class="st57" d="M129.3,10.23c.19,0,.3.21.59.11-.12-.23-.36-.36-.5-.48-.07.14-.21.2-.09.37Z"/>
    <path class="st40" d="M103.56,44.68l2.93-1.54c2.36-1.23,4.82-2.03,7.36-2.37.13.29.13.72.01,1.04-.24.63.34,1,.43,1.41.18.84.04,1.9.98,2.44.16.51.54,1.03,1.16,1.22.65,1.8,2.65,1.71,2.74,2.12.24,1.01-4.17,1.28-6.62.27-.26.02-.67.54-1,.21-.45.11.22,1.38.74,1.71l2.29,1.45c-.16.37.23.47.34.66l1.8,3.03c.22-.19.41-.22.6-.13.38,1.15.67,2.38.47,3.59-.35-.02-.54.33-.79.64-1.03,1.32-3.26,2.11-3.68,1.81s.38-1.19.15-2.37c-1.29-.33-1.42.29-1.71.27-.16-.26-.1-.33-.02-.72l-1.42,1.03c-.61-.29-1.59.45-2.84.11-.15-.04-.26-.1-.32-.05-.09.08-.07.17-.06.22-.08.04-.24.18-.22.27.02.1.07.29.04.38-.18.5-.03,1.18.34,1.47.49.39,1,.46,1.54.39-.9.74-1.62,2.51-.84,3.51.24.31.71.32,1.1.49.39.22.55.78.84,1.04.15.41-.19.46-.47.7-2.69,2.31-5.44,4.36-8.52,6.13-2.42,1.4-4.94,2.38-7.61,3.3-.1.03-.06.24-.05.26l-1.27.15c-.71.08-1.41.05-1.99-.47,2.29-1.22,4.34-2.51,6.23-4.21.14-.24-.34-.38-.24,0-.55.23-.9.7-1.34.99-.02-.14-.07-.2-.13-.2-.16-.02-.26.13-.35.17l-1.23.62c-2.3,1.4-4.97,2.22-7.69,2.13-.19,0-.32.02-.5-.04-.08-.03-.13-.09-.13-.26l3.11-1.61,1.29-.78c.02-.08.01-.16-.02-.22l-1.43.83-2.28,1.15c-.1-.22-.33-.25-.54-.19l-1.17.32c-1.24.34-2.56.63-3.69.11-.01-.09.07-.25.15-.26l.35-.04,2.3-1.03,2.43-1.54c.6-.38,1.31-.63,1.59-1.38l-1.15.85-2.96,1.82c-1.95,1.2-4.18,1.79-6.45,1.4-.83-.27-1.58-.57-2.28-1.05-1.77-.27-3.56-.72-4.86-1.98,2.18.69,4.22.91,6.34.31,2.71-.76,5.11-2.1,7.39-3.83.33.04.18-.43-.14-.16-2.41,1.74-4.9,3.15-7.73,3.87l-1.5.17c-1.97.23-4.41-.39-6.02-1.81,3-.39,5.69-1.28,7.98-2.84.04.02.24-.03.19-.28,2.7.36,6.6-2.04,9.06-3.97l-3.65,2.11c-1.67.96-4.71,2.25-5.99,1.27-1.08-.83.23-2.74,1.8-3.68.7,2.67,6.44-1.6,6.48-2.03.19-.03.44-.22.69-.39-.18-.27-.32-.02-.43.02-.23.09-.24.12-.26.37-.26-.02-.29.11-.53.27l-2.09,1.38c-.86.57-1.86,1.14-2.96,1.01-.45-.05-.59-.51-.62-.81-.1-.99,1.3-2.13,2.46-2.83l2.91-1.79c-.05-.05-.14-.08-.24-.07l-3.15,1.87c-1.06.7-1.99,1.55-2.27,2.82-1.17.59-2.08,1.56-2.39,2.74-.23-.21-.44,0-.73.09l-2.56.89c-.01-.2-.16-.13-.25-.15-.21-.05-.4.11-.55.14l-3.22.62c-1.01.19-2.12.1-3.15.01-.44-.04-.83-.35-.99-.61-.73-1.17,2.85-3.61,4.41-4.65,1.13.63,2.31.41,3.43.2l6.18-1.15c.08-.01.12-.11.07-.18l-6.74,1.19c-.6.11-1.15.21-1.69.18.03-.13-.04-.33-.1-.48,1.47-1.17,3.2-2.03,4.86-2.89l3.41-1.76c.44.41,1.35.59,2.1.51,2.76-.32,5.15-1.38,7.53-2.77-.06.5-.22.84-.11,1.18.39,1.17,3.45.02,4.93-1.07l3.21-2.36c.12-.09.48-.27.43-.42.4.1.79.27,1.26.11.96-.33,1.83-.82,2.68-1.43l2.96-2.15c1.37-.99,2.83-1.63,4.5-1.74l2.11-.14c-2.34-.38-4.67.16-6.61,1.57l-2.95,2.15c-1.19.87-2.87,1.91-3.56,1.45-.3-.2-.37-.62-.21-.99l.16-.39c.06-.14-.04-.27-.15-.18-.35.7-.43,1.18-.18,1.74-.35-.09-.6.31-.83.49-1.99,1.52-5.47,4.02-7.19,3.44-1.13-.38.89-2.58,1.88-3.76-1.03.37-1.23,1.54-2.04,2.08-2.05,1.34-7.26,3.71-9.72,2.44.37-.59.86-.8,1.27-1.07l.2.62.77-.45,5.12-3.59c4-2.8,8.28-4.76,12.94-6.18l4.82-1.46c1.72-.52,3.38-.76,5.24-.85-.43-.5-1.02-.25-1.43-.26.11-.71-.82-.11-2.32-.17l-.4.17c-.13.06-.27-.05-.27-.24.04-.37.38-.54.72-.72ZM110.63,50.39c-.49-.43-1.09-.26-1.59-.39s-.9-.21-1.56,0l3.15.39ZM105.15,56.11c-.73.68-1.91,1-2.24.29-.12-.25-.03-.7-.04-.98-.03-.06-.1-.09-.12-.09l-.04,1.45c.92.45,1.84.14,2.68-.49.12,0,.03-.26-.24-.19ZM105.68,60.36c-.33.04-.74-.25-.79-.52-.1-.46.1-.73.46-1.02-.44-.02-.78.08-1.08-.17-.23-.19-.28-.58-.06-1.02-.47.17-.39.51-.33.88.05.29.52.44.79.69.1.29-.13,1.01.33,1.25,1.01.52,2.28-.31,3.15-1.31-.78.13-1.19,1.05-2.46,1.21ZM90.46,60.58c-.21.28-.32.54-.28.85-.43.39-.52,1.46-.08,1.88.48.46,1.46.36,1.89-.04-.53,0-1.04.32-1.46.05-.95-.59-.26-1.2-.35-1.89.21-.18.43-.41.28-.85ZM104.32,67.54c-1.53-2.02-.04-3.47,1.67-5.45-2.01,1.38-3.64,4.14-1.67,5.45ZM102.24,69.83c-.62-.47-1.13-.95-1.3-1.7-.28-1.23.23-2.35.94-3.41.24-.36.67-.62.61-1.18l-.97,1.35c-.45.63-.82,1.3-.82,2.17l-.16.38.15.41c.08.88.55,1.94,1.55,1.97ZM98.13,69.09c.34-1.38,1-1.8,1.03-2.46-1.33,1.36-1.86,3.74-.35,4.7-.27-.72-.88-1.43-.69-2.24ZM96.26,72.91c-.54-.28-1.01-.63-1.24-.97-.87-1.27.56-3.19,1.81-4.55-.62.17-.85.73-1.21,1.13-.73.81-1.16,1.79-.98,2.99.11.75.9,1.52,1.62,1.41ZM86.9,69.71c-.88,0-2.04.96-2.63.14-.43-.6-.12-1.23.2-1.82-.55.18-.88,1.19-.54,1.86.32.62,1.89.63,2.96-.19ZM93.65,68.56c-.38.12-.68.53-.85.9-.06.04-.27,0-.31.13-.29,1-1.63,2.18-.17,3.99.33-.36-.21-.64-.25-.82-.13-.52-.21-1.26,0-1.69l.74-1.61c.28-.14.68-.38.85-.9ZM89.2,70.93c-.94.34-1.76.39-2.49-.28.11.96,1.76,1.08,2.49.28Z"/>
    <path class="st84" d="M118.55,60.44l.89,4.62c.93-1.11.83-2.87,2.02-3.65.02.33.06.64.19.76.17.17.54.11.76.04l2-.66c2.13-.7,4.02-2.08,4.98-4.23.68-1.52.02-3.09-1.07-4.21-.41-.42-.79-.87-1.3-1.16-.25-.14-.29-.26-.22-.54.18-.71,1.35,1.58,3.42.78,1.02-.39,2.02-.73,3.11-.99l1.63-.84c1.32-.68,2.44-1.36,3.63-2.4l-.51,1.95c.6-.24,1.03-.65,1.35-1.16l.95-1.54c.65.19,1.15.07,1.52-.31.18.26.24.83.44,1.12-.19,1.44-1.36,2.81-2.61,3.82l-2.37,1.92c-1.2.98-1.63,5.47-5.48,9.21.05-.39-.17-.52-.29-.56-.4-.38-.7-.1-.95.1l-3.08,2.06c-.41.27-.64.74-.94,1.2.94-.06,1.42-.51,2.1-.88.1-.05.31.19.27.32-.14.39-.38.51-.25.79.05.11-.22.32-.1.35.38.08.69-.76,1.3-.92-2.31,3.73-4.75,7.86-7.97,10.7-.28-.03-.46-.37-.35-.69l.46-1.35c.05-.15.1-.3-.02-.45-.06-.07-.13-.17-.28-.05-2.02,1.72-5.09,3.75-7.44,3.9-.42.03-.82.21-1.29.32l-1.6.36c-1.99.44-3.91.8-6,.86-.51.48-.65,1.08-.98,1.51-.04-.06.07-.15-.06-.32l-.83.86-.61.82c-.13,0-.37.11-.5-.1-1.06,1.14-2.13,2.36-3.56,3.21l-2.5,1.49c.2-.4.67-.52.63-1.03-1.44,1.45-3.18,2.32-4.92,3.13.08-.25-.01-.48-.05-.45l-.3.11c-.05-.11-.13-.23-.1-.36.03-.1.14-.2.26-.3l2.96-2.31c1.19-.93,2.43-1.68,3.39-2.99-2.19.83-4.21,1.44-6.47,1.46l-1.64-.21c-.96-.13-3.69.95-3.62.87-.04.04.02.16,0,.23-.14.09-.23.27-.51.17.25-.3.26-.78.03-.98.08-.32.11-.59.55-.75-.24-.2-.32-.33-.18-.64-.43-.02-.77.17-1.28.43-.11.03,0,.28.25.15.11-.05.29-.21.38-.21.08,0,.2.18.24.28.02.05-.08.1-.13.26l-.13.41c-.04.13.24.12.3.06l-.27,1.09c-.85.22-1.59.41-2.49.27l1.1-.6c-1.15.13-2.23.4-3.54.18.35-.17.76-.13,1.11-.44-1.47.16-2.79.26-4.06-.25l1.92-.18c-1.67-.23-3.18-.24-4.7-.94.69-.14,1.27.09,1.97-.31l-2.99-.39,2.71-.52c-1.52,0-3.27.33-4.47-.2.05-.15-.03-.35-.18-.44l1.03-.41,3.61-.63c1.47-.26,2.83-.19,4.29.02,2.62.38,5.13.52,7.74.05,6.38,2.25,14.11-.81,19.1-5.01,2.05-1.72,3.65-3.67,5.43-5.61,1.38-1.51,2.61-3.04,3.52-4.84.08-.16,0-.47-.11-.62.71-1.35,1.26-2.87,1.37-4.38.37.02.32.47.38.8ZM141.84,47.42c-.26,1.08-.79,2.03-1.53,2.86l-.29-1.55-.32.48c-.44,1.16-1.14,2.04-2.11,2.84,1.11-.38,1.72-1.42,2.26-2.46.1.25.14.66-.11.95.34.1.44-.16.57-.25.86-.66,1.72-1.68,1.53-2.86ZM137.45,51.67l-1.67,1.17c.73,0,1.39-.45,1.67-1.17Z"/>
    <path class="st20" d="M128.76,47.63c-.01-.22.2-.28.4-.32.24-.05.28.24.22.47.72-.01,1.17-.82,1.2-.51.08.89,2.81-.21,2.93-1.41.01-.14-.1-.27-.34-.32.18-.37.45-.52.72-.9-.33-.18-.34-.35-.34-.54,0-.14.18-.29.23-.4-.17-.22-.4-.41-.33-.63l.18-.57c.07-.23-.44-.36-.49-.43.08-.3.24-.48.34-.66.08-.16-.17-.38-.31-.47l.68-.72c-.29.04-.38-.26-.3-.35.06-.06.27.07.16-.2-.06-.16.2-.34.33-.43l-1.08-1.71c-3-1.12-5.57-.32-7.57,2.13-.12.15-.28.39-.15.59.07.12.23.21.41.42-.6.23-.97.57-1.11,1.05-.11.4.04.89.41,1.24-.56.3-1.04.88-.77,1.45.15.3.53.5.62.87.15.58.87.8,1.2,1.19.46.56.85.73,1.56.85.37.06.75.28,1.19.3Z"/>
    <path class="st79" d="M102.35,45.76l.49-.37c.04-.37.38-.54.72-.72l2.93-1.54c2.36-1.23,4.82-2.03,7.36-2.37l3.84-3.68c.72-.69,1.23-1.4,1.89-2.1,2.59-2.71,5.72-4.39,9.3-5.47l2.2-.43c-.49-.17-.77-.31-.76-.72-5.9,1.1-9.92,4.58-14.19,9.11l-1.59,1.37c-.92.79-1.94,1.28-3.07,1.56-2.18.54-4.27,1.26-6.31,2.4l-6.69,3.75c1.2-.05,2.08-.61,3.12-.72l.75-.08Z"/>
    <path class="st11" d="M132.46,13.73c.7-.03,1.27.17,1.78.65,3.11,2.93,6.3,6.03,7.95,9.86l.79,1.83c.12.28.29.47.53.47-.83-3.42-2.89-6.53-5.52-9.1l-3.04-2.96c-3.19-3.11-5.95-6.41-8-10.27.56,2.17,1.59,4.06,2.93,5.8.24.31.59.42.69.87.09.36.57.62.78.9-.2.01-.38.13-.36.14.36.18.12.41-.15.35l1.49,1.01c-.35.06-.27.19-.22.23.16.13.31.2.35.22Z"/>
    <path class="st94" d="M138.57,38.79c.13.14.24.25.29.28.07.03-.08.26-.27.08-1.04.74-2.15.62-3.28.21-.84-.31-1.36-1.09-1.51-1.97-.25-1.4.84-2.54,1.71-2.58l1.57-.07c.06.18.2.18.34.22.6.23,1.15.67,1.57,1.03.04.33.04.86.29,1.07-.01.64-.09,1.32-.71,1.73ZM138.33,38.14c.53-.92.14-1.99-.64-2.56s-2.05-.68-2.68.14c-.76,1-.55,2.52.58,3.07.99.48,2.24.22,2.74-.64Z"/>
    <path class="st54" d="M142.57,39.05c-.57.42-1.31.17-1.95.31,0,.04-.07.2-.03.24.14.16.62,0,.74.21.09.16,0,.33-.13.51-1.48,1.97-1.17,4.44-.86,3.93.41-.69,1.06.65,1.66,1.54-.03.07-.04.19.03.27s.18.11.27.07c.07-.03.2-.2.13-.36l-1.1-2.94c.13-.52.38-.92.29-1.44-.18-1.01,1.79-1.03,2.28-2.39-.43-.2-.98-.2-1.33.05Z"/>
    <path class="st36" d="M133.12,23.3c.19.17.47.28.64.69-1.08-.14-1.98-.26-3.12.03.43.54.91.2,1.36.21,1.76.05,3.35.83,4.61,1.82.18-.14.27-.13.26-.33-.02-.72-1.54-3.09-3.06-2.97-.36.03-.57.22-.69.56Z"/>
    <path class="st64" d="M144.2,28.44c.08-.06.48-.02.57.11.46.91.48,1.89.68,2.87.04.22.44.43.39.87-.03.25.32.56.5.48l-.76-3.18c-.76-2.53-1.75-4.96-3.4-7.02.98,1.85,1.7,3.81,2.03,5.86Z"/>
    <path class="st80" d="M140.62,39.36c.64-.15,1.38.1,1.95-.31-.63-.14-1.24-.22-1.88-.73l-.42.63c.2.21,0,.28.02.35.03.12.29.08.34.06Z"/>
    <path class="st48" d="M137.07,34.75c.06.18.2.18.34.22.6.23,1.15.67,1.57,1.03-.33-.75-1.03-1.28-1.91-1.24Z"/>
    <path class="st91" d="M128.76,47.63c.18.01.39.16.63.15.06-.23.02-.52-.22-.47-.2.04-.42.1-.4.32Z"/>
    <path class="st48" d="M139.28,37.06c0-.44-.12-.68-.29-1.07.04.33.04.86.29,1.07Z"/>
    <path class="st16" d="M61.34,79.97l.42.02c.1,0,.27.05.27.22l-1.37.57-6.85,2.89c-6.49,2.74-13.31,4.89-20.45,6.25-.02-.06-.04-.2,0-.24.09-.08.33-.09.46-.1.34-.02.37-.29.39-.46.53.23.85-.3,1.17-.41l2.25-.76c.09-.03.39.05.48-.1.06-.1-.08-.3-.17-.5l6.72-2.25,3.66-1.31,5.47-2.13-.13-.18-6.64,2.5-2.02.65c-.14-.17-.34-.05-.69-.18l1.24-.73c-.3-.07-.55-.16-.64-.12-.06.27-.34.05-.35.3l-7.3,2.2c-3.73,1.12-7.45,1.92-11.32,2.53-.21.03-.34-.03-.34-.21l6.27-1.67,8.12-2.35c1.76-.51,3.49-.95,5.08-1.87l-5.59,1.8c-9.21,2.58-18.59,4.37-28.17,5.57l-1.95.29-1.78.16-3.8.02c-.29,0-.59-.05-.95-.2.67-.12,1.35-.47,2.01-.35.87.16,1.81-.1,2.69-.33l1.98-.51c12.17-2.56,24.24-5.41,36.29-8.8.25-.07.24-.11.27-.28,5.01.62,10.1.46,15.24.06ZM54.56,81.27c0-.16-.53-.13-.57.17,0,.16.53.15.57-.17Z"/>
    <path class="st78" d="M66.97,79.42l-1.3.83-8.16,3.7,2.8-.02,3.36-.3,9.77-1.32-1.07-.44c-.09-.04-.27-.03-.31-.08-.05-.05-.02-.21.08-.25.06-.03.17,0,.24,0,.05-.15-.03-.35-.18-.44l1.03-.41,3.61-.63c1.47-.26,2.83-.19,4.29.02,2.62.38,5.13.52,7.74.05,6.38,2.25,14.11-.81,19.1-5.01,2.05-1.72,3.65-3.67,5.43-5.61,1.38-1.51,2.61-3.04,3.52-4.84.08-.16,0-.47-.11-.62-.95,1.82-2.45,3.23-3.89,4.81-2.49,2.72-5.04,5.18-8.22,7.11-3.75,2.29-7.98,3.81-12.37,3.23-1.01.12-1.98-.01-2.77-.6-1.33.42-2.61.56-3.98.62-1.37.08-2.67-.16-3.92-.62-1.09.21-2.12.26-3.18-.05l-5.04.27-6.07.27c-.09.25-.27.27-.39.34Z"/>
    <path class="st15" d="M71.07,68.66l-3.13.72-1.46.17c-2.12.25-3.42.23-4.16-1.38-.08-.17.11-.19.38-.73-.7.38-1.28.45-1.94.66l-4.17,1.3-4.32,2.39c-.84.46-1.56,1.12-1.96,2.01.14.4.43.51.75.83l12.53-.06c.59,0,1.18-.24,1.75-.18l-1.34-.23c-1.17-.51-1.89-.48-2.2-.85l-1.07.11-2.38.3c-1.5.19-3.2.19-3.24-.68-.07-1.45,3.74-3.53,5.24-4.41l.48-.28c.18.26-.07.39-.19.34-.06-.02-.15-.02-.29-.06l-3.47,2.48c-.69.47-1.28,1.07-1.67,1.87.64.85,1.64.62,2.53.53l1.81-.18,4.52-.62c-1.93-.43-3.89-1.09-3.34-2.71.22-.65.62-1.41,1.34-1.64-.45.74-1.31,1.36-1.12,2.22.16.73.97,1.15,1.61,1.34,3.79,1.1,8.71-.24,11.99-1.91.28-.15.46-.48.8-.33.2-.57-1.23-.45-.99-1.99-.23-.21-.44,0-.73.09l-2.56.89Z"/>
    <path class="st75" d="M73.7,78.38c.06-.31-.91-.87-1.61-1.1-.19.14-.37-.37-.69-.36-.41.01-.8-.37-.56-.74l-.65.19-3.14.12h-5.96s-3.63-.16-3.63-.16l-2.91-.17-3.65-.15c-.49-.02-.88-.17-1.4.08-.15-.45-.52.01-.22.1l4.34.75c.65.11,1.31.17,1.9.22l2.27.16,2.33.17h7.92c1.05,0,2.05-.21,3.05,0l-1.57.17-3.61.15c-1.63.07-3.35.08-4.98,0l-3.13-.15-1.78-.17-1.91-.21c-2.14-.23-4.22-.59-6.14-1.17-1.36-.41-2.82-.22-3.54-.99-1.02-1.09.93-2.63,2.58-3.15-.06-.07.02-.21.11-.17.08.03.31.16.44-.15-3.91.32-7.74,1.16-11.54,2.65-.52.2-1.41.59-1.44,1.16-.02.63,1.06.8,1.51.87l2.26.37,1.99.15,2.86.15,2.58.16,4.55.55,10.71.82,8.07.07,4.15-.04.46-.17Z"/>
    <path class="st52" d="M104.48,80.51c-.14.18-.34.34-.31.7.27-.17.43.08.28.24-.17.14-.62.57-.83.13-.31.39-.54.78-1.08,1.11,0-.41.29-.61.45-.82-.13,0-.37.11-.5-.1-.85,1.75-2.38,2.86-3.99,4.06,7.64-1.27,17.92-4.84,23.47-9.73-.28-.03-.46-.37-.35-.69l.46-1.35c.05-.15.1-.3-.02-.45-.06-.07-.13-.17-.28-.05-2.02,1.72-5.09,3.75-7.44,3.9-.42.03-.82.21-1.29.32l-1.6.36c-1.99.44-3.91.8-6,.86-.51.48-.65,1.08-.98,1.51Z"/>
    <path class="st89" d="M86.56,84.63c-.4,1.8-2.19,3.47-1.48,4.13.34.65.62,1.9,1.19,2.4,1.05.93,2.21.19,3.33-.89.06.19.03.41.32.61.52-1.54,2-2.31,1.86-2.64-.05-.11-.13-.23-.1-.36.03-.1.14-.2.26-.3l2.96-2.31c1.19-.93,2.43-1.68,3.39-2.99-2.19.83-4.21,1.44-6.47,1.46l-1.64-.21c-.96-.13-3.69.95-3.62.87-.04.04.02.16,0,.23Z"/>
    <path class="st22" d="M36.85,72.73c.51.72,1.38.45,2.11.26l3.01-.77,6.7-1.12,7.1-1.74,3.11-1.04c1.28-.43,2.88-.52,4.01-1.26,1.36-1.01,2.49-2.21,3.99-3.18l-7.19,1.99-5.7,2.15c1.32.19,2.8-.19,4.08-.11.26-.19.4.14.12.26l-2.58.1c-4.43.42-8.67,1.21-13.02,2.39-1.99.54-3.81.98-5.74,2.08Z"/>
    <path class="st96" d="M47.04,72.13c-1.12.42-2.84,1.55-2.68,2.39.1.54,1.11.99,1.58,1.01l6.72.33,3.71.14,3.58.16,8.58.06,1.08-.16c-.54-.4-1.21-.7-1.77-1.39-.55-.17-1.17.02-1.78.03l-5.59.14-9.01.05c-.44,0-1.03-.34-1.21-.62-.86-1.33,2.88-3.35,4.56-4.28l-5.62,1.35-2.14.8Z"/>
    <path class="st49" d="M25.6,88.41l-6.21,1.56-8.46,2.02h3.76c4.35-.4,8.52-1.17,12.78-2.18s7.9-1.93,11.79-3.22l5.18-1.72c.21-.07.44-.09.56-.25-.14-.17-.34-.05-.69-.18l1.24-.73c-.3-.07-.55-.16-.64-.12-.06.27-.34.05-.35.3l-7.3,2.2c-3.73,1.12-7.45,1.92-11.32,2.53-.21.03-.34-.03-.34-.21Z"/>
    <path class="st66" d="M93.26,78.69c7.09-1.54,11.58-4.69,17.18-9.68-2.86,3.16-6.36,5.67-10.05,7.53-2.11,1.06-4.28,1.63-6.47,2.3,1.01.13,1.91.01,2.87-.17,5.98-1.12,11.25-5.11,15.38-9.56-1-.14-1.67-.29-2.26-.81.15.41-.19.46-.47.7-2.69,2.31-5.44,4.36-8.52,6.13-2.42,1.4-4.94,2.38-7.61,3.3-.1.03-.06.24-.05.26Z"/>
    <path class="st72" d="M4.85,89.82c.87.16,1.81-.1,2.69-.33l1.98-.51c12.17-2.56,24.24-5.41,36.29-8.8.25-.07.24-.11.27-.28l-1.88-.23c-.06,0-.02-.26.02-.26-13,3.81-26.2,7.19-39.39,10.41Z"/>
    <path class="st18" d="M90.17,95.54c-.49-.02-.73.39-1.16.6-4.15,2.12-4.76.68-5.83.58-.11-.01-.26.13-.13.28.67,1.13,1.95-.03,2.02,1.4.29.1.78.25,1.06.22.25-.18.48-.11.67-.16.05-.56.44-.74.99-.91l3.84-1.19,3.67,1.57,1.93.63c.16.05.35.05.37.44.27-.3.58-.22.97-.21.7.28,1.41.27,2.12-.08.64.58,1.47.68,2.16.27.36-.73-.79-.45-.98-1.85-3.95,1.29-8.14-.93-10.53-4.13l-.95-1.02c-.38.39-1.36.09-1.41.84.44.73,1.14,1.14,1.4,1.93.08.23-.02.77-.24.77Z"/>
    <path class="st82" d="M44.24,79.42s-.08.25-.02.26l1.88.23c5.01.62,10.1.46,15.24.06l.42.02c.1,0,.27.05.27.22,1.02-.42,3.09-.34,3.08-.24v.25s1.87-.81,1.87-.81c.03-.1.22-.22.21-.39l-4.53-.09c-2.49-.05-4.9-.06-7.4-.4l-6.21-.67-4.81,1.55Z"/>
    <path class="st55" d="M147.93,45.67c.17-2.02.37-4.48-1-6.12-1.95,1.8-4.78,1.01-5.02,2.6.25,1.06,1.25,2.02,2,2.74.37.36.92.19,1.33.1.8,1.18.49,2.43.25,3.88,1.17-.81,2.33-1.93,2.43-3.2Z"/>
    <path class="st34" d="M111.76,60.15c-.17,0-.34-.11-.45-.16-1.28,1.25-3.42,2.48-4.4,1.41-.18.5-.03,1.18.34,1.47.49.39,1,.46,1.54.39l3.14-2.57c.21.18.02.31-.03.42.73.66-.9,1.25-1.33,2.75.69.4,1.4.47,2.2.35l-2.38,1.46c-.06.28.29.53.46.54.26.02.4-.11.61-.2l2.8-1.25c.3-.13.48-.55.85-.47.2.04.51.27.66.47,1.07-1.46,1.73-3.18,2.02-4.97-.35-.02-.54.33-.79.64-1.03,1.32-3.26,2.11-3.68,1.81s.38-1.19.15-2.37c-1.29-.33-1.42.29-1.71.27Z"/>
    <path class="st0" d="M62.03,80.21l-1.37.57c.05.2-.05.32-.14.35l-.42.14-8.93,3.72c-4.74,1.98-9.56,3.52-14.58,4.68,1.34.11,2.49-.26,3.74-.55,6.69-1.53,13.07-3.67,19.35-6.48l5.42-2.42v-.25c.03-.1-2.04-.18-3.07.24Z"/>
    <path class="st50" d="M113.57,90.27c.02.08-.03.15-.12.15.25.17,0,.58,0,.79.34.69,1.27.64,1.93.74,1.44.21,2.64.94,3.92,1.48l1.65.7c.1.04.07.35.03.44,1.24.53,2.52,1.11,3.9,1.24.68.07.69.43,1.3.53.18.03.64-.23.55-.47-.12-.34-.37-.61-.21-.99.15.09.22.24.2.4.65.34,1.09.85,1.43,1.64.39-1.09-.51-2.23-1.71-2.37s-2.51-.06-3.7-.94c-.21-.15-.49-.25-.44-.55,0-.1-.23-.24-.36-.27-1.2-.26-2.24-.85-3.41-1.19l-3.97-1.15c-.36-.11-.66-.24-.98-.15Z"/>
    <path class="st19" d="M115.07,81c.16.29.16.47.04.66-.18.28-.23.44-.53.43.14.81-1.83,1.38-2.74,2.8-.75,1.17-.88,2.48-.85,3.96-.57-.42-.63-.98-1-1.41-.13.99-.01,1.96.5,2.78.15.24.43.39.27.75.4.18.94.51,1.44.21.67-.4,1.03-1.18,1.02-1.91,0-.91.14-1.68.51-1.5,0-.56.02-1.17.22-1.8l1.66-5.11c-.27-.1-.44.09-.54.13Z"/>
    <path class="st95" d="M105.83,45.63c-.67-.01-1.33-.03-2.04.08l-1.25.19c-6.29,1.32-12.31,3.79-17.78,7.47l-6.59,4.43.2.62.77-.45,5.12-3.59c4-2.8,8.28-4.76,12.94-6.18l4.82-1.46c1.72-.52,3.38-.76,5.24-.85-.43-.5-1.02-.25-1.43-.26Z"/>
    <path class="st93" d="M109.45,67.12c.86.15,1.48-.44,2.17-.78.58-.28,1.3.25,1.54.67,1.11-.42,1.93-1.33,2.61-2.25-.15-.2-.46-.43-.66-.47-.37-.08-.55.34-.85.47l-2.8,1.25c-.21.09-.35.22-.61.2-.17-.01-.53-.27-.46-.54l2.38-1.46c-.8.12-1.5.05-2.2-.35.43-1.5,2.06-2.09,1.33-2.75-2.04,1.22-5.03,3.73-3.72,5.45.26.34.79.47,1.26.55Z"/>
    <path class="st21" d="M61.78,73.3c.31.36,1.03.34,2.2.85l1.34.23,2.83.04c.02.2-.2.28-.32.26.56.69,1.23.99,1.77,1.39.39-.06.81-.06,1.24.13-.24.36.15.75.56.74.32,0,.5.5.69.36.7.23,1.67.79,1.61,1.1.94.01,1.9.09,2.89-.13-.78-.34-1.79-.45-2.15-1.18-.33-.66-.64-.9-1.38-.98-1.56-.18-3.03-.76-4.22-1.71-.23.2-.56.2-.56-.05.41.21.65-.13.38-.39-.55-.38-1.13-1.05-1.7-1.28-.85-.12-1.78.06-2.58.2l-2.59.44Z"/>
    <path class="st69" d="M120.97,94.56c.04-.09.06-.4-.03-.44l-1.65-.7c-1.28-.54-2.48-1.27-3.92-1.48-.66-.1-1.59-.04-1.93-.74,0-.21.25-.62,0-.79-.25.01-.32.3-.55.52l-.59.56c-1.07.18-1.7-.42-2.66-.59.04,1.61,2.32,2.06,4.03,1.74,1.12-.21,2.31-.12,3.36.37.91.43-1.08,1.98-1.83,1.93s-1.7.2-1.79,1.14c.64.71,1.98.23,2.7-.24.66-.43,1.4-.47,2.06-.96.81-.59,1.93-.69,2.77-.33Z"/>
    <path class="st74" d="M70.84,76.19c-.43-.19-.85-.18-1.24-.13l-1.08.16-8.58-.06-3.58-.16-3.71-.14-6.72-.33c-.48-.02-1.48-.47-1.58-1.01-.16-.84,1.57-1.97,2.68-2.39,0-.05,0-.1-.04-.17-1.65.52-3.61,2.06-2.58,3.15.72.77,2.18.58,3.54.99,1.93.58,4.01.94,6.14,1.17l1.91.21,1.78.17,3.13.15c1.63.08,3.35.07,4.98,0l3.61-.15,1.57-.17c-1-.21-2,.01-3.05.01h-7.92s-2.33-.18-2.33-.18l-2.27-.16c-.6-.04-1.26-.1-1.9-.22l-4.34-.75c-.3-.08.07-.54.22-.1.52-.25.91-.1,1.4-.08l3.65.15,2.91.17,3.63.15h5.96s3.14-.11,3.14-.11l.65-.19Z"/>
    <path class="st9" d="M84.62,77.57c-.63.33-1.44.32-2.15.91,2.75.56,5.66.46,8.18-.75,1.49-.72,2.72-1.71,3.99-2.57-.02-.14-.07-.2-.13-.2-.16-.02-.26.13-.35.17l-1.23.62c-2.3,1.4-4.97,2.22-7.69,2.13-.19,0-.32.02-.5-.04-.08-.03-.13-.09-.13-.26Z"/>
    <path class="st38" d="M113.57,90.27c.32-.08.62.05.98.15l3.97,1.15c1.17.34,2.21.93,3.41,1.19.14.03.36.18.36.27.4.41.95.63,1.49.68l1.08.12c-.6.36.49-.05.61.18.85-.07,1.4.41,2.11.49l1.5.18c.68.25,1.32.54,1.99.45-.28-.17-.56-.64-.49-1.17-2.5.23-4.87-.09-7.14-1.07-2.24-.97-4.42-1.68-6.78-2.25l-2.55-.61c-.1-.02-.25-.21-.45-.11-.09.04-.12.2-.08.34Z"/>
    <path class="st45" d="M79.9,77.19c-.32-.15-.47-.02-.83-.01l-3.16.02c-.32,0-.71-.35-1.13-.22,1.09.97,2.57,1.02,4.01,1.3,2.28.45,4.55-.34,6.51-1.33-.1-.22-.33-.25-.54-.19l-1.17.32c-1.24.34-2.56.63-3.69.11Z"/>
    <path class="st17" d="M33.36,89.92c-.02-.06-.04-.2,0-.24.09-.08.33-.09.46-.1.34-.02.37-.29.39-.46.53.23.85-.3,1.17-.41l2.25-.76c.09-.03.39.05.48-.1.06-.1-.08-.3-.17-.5l-5.57,1.62-4.85,1.23c1.15.37,2.21.2,3.33.05l2.48-.33Z"/>
    <path class="st26" d="M90.17,95.54c.22,0,.32-.54.24-.77-.26-.79-.95-1.21-1.4-1.93.05-.74,1.02-.44,1.41-.84l-1.05-1.19c-.7.67-1.57,1.16-2.48,1.02-.76-.12-1.1-.94-1.6-1.39-.23.84.25,1.41.81,1.75l2.96,1.81c.59.36,1.07.89,1.11,1.54Z"/>
    <path class="st53" d="M68.56,64.25c.03-.13-.04-.33-.1-.48,1.47-1.17,3.2-2.03,4.86-2.89l3.41-1.76c-.04-.08-.05-.21-.2-.26-.11-.04-.18.02-.36.08-3.07,1-5.92,2.53-8.46,4.54-.1.08-.19.27-.22.34-.06.15.44.39,1.07.44Z"/>
    <path class="st81" d="M128.74,65.99c.44-.2.7-.66,1.06-1.01l2.08-2.02c.05-.39-.17-.52-.29-.56-.4-.38-.7-.1-.95.1l-3.08,2.06c-.41.27-.64.74-.94,1.2.94-.06,1.42-.51,2.1-.88.1-.05.31.19.27.32-.14.39-.38.51-.25.79Z"/>
    <path class="st70" d="M109.45,67.12c.4.89,1.12,1.63,2.14,1.71,1.12-.47,2.07-1.2,2.74-2.11-.37.09-.58.31-.82.46-.18.11-.3.03-.35-.16-.24-.42-.96-.95-1.54-.67-.69.34-1.31.93-2.17.78Z"/>
    <path class="st92" d="M86.81,98.47c1.02-.24,2.13-.44,3.15-.86,2.77-1.14,3.51.81,6.7,1.12.09,0,.35.16.5.1.08-.03.16-.09.1-.26l-1.93-.63-3.67-1.57-3.84,1.19c-.55.17-.94.34-.99.91Z"/>
    <path class="st25" d="M145.67,36.83c.46.1.62.5.62.97,0,.38-.24.89-.76.89-.18,0-.37-.27-.46-.33.02.19.03.37,0,.57.33.11.6.32.96.12.1-.05.31-.12.39-.04.08.07.12.41.14.33.44-.36.71-.36.83-.56.56-.93-.39-2.26-1.53-2.72-.26-.11-.43.21-.35.4.05.11-.01.32.16.36Z"/>
    <path class="st77" d="M142.51,45.17c.31.59.19,1.34.17,2.15,1.35-.12,2.88-.78,2.64-1.53-.53-.14-1.05.21-1.55.25-.6.05-.63-1.38-1.26-.87Z"/>
    <path class="st86" d="M146.93,39.56c1.36,1.63,1.17,4.1,1,6.12.85-1.82.8-4.82-.47-6.43-.16-.2-.41.21-.53.32Z"/>
    <path class="st4" d="M146.02,39.06c-.36.19-.64-.01-.96-.12l-1.03.04c.07.36.1.61-.08.72l-.47.29c-.2.12-.28.29-.23.44.11.36.91.25.94.18l.09-.25c.1.2.27.21.33.17s.13-.12.11-.36c.29.37.5.07.71.03.35-.07.48-.38.45-.64-.01-.09.27-.19.29-.26s-.11-.16-.14-.23Z"/>
    <path class="st85" d="M85.07,98.4c-.07-1.43-1.35-.27-2.02-1.4-.29.24-.86.45-1.03.87-.23.6,1.5.83,1.58.77.47-.31.95-.42,1.46-.25Z"/>
    <path class="st24" d="M127.57,94.51l.82.96.81-.07c.5.65,1.45.95,2.05.39.16-.15.21-.32.12-.49-.05-.11-.21-.11-.31-.15-.67.09-1.31-.21-1.99-.45l-1.5-.18Z"/>
    <path class="st87" d="M130.8,94.18c.16,1.32,1.85.38,3.37,2.21-.27-1.59-1.79-2.44-3.37-2.21Z"/>
    <path class="st27" d="M102.98,98.21c1.03-.15,1.74.11,2.76.46-.77-1.25-2.17-1.52-3.55-1.32.04.37.48.91.79.87Z"/>
    <path class="st8" d="M117.31,56.21c-.48-1.47-1.44-2.75-2.73-3.57-.16.37.23.47.34.66l1.8,3.03c.22-.19.41-.22.6-.13Z"/>
    <path class="st71" d="M142.51,45.17c.63-.51.66.92,1.26.87.49-.05,1.02-.39,1.55-.25-.21-.67-.99-.09-1.57-.57-.48-.4-.93-.84-1.26-1.25-.18-.22-.25-.67-.6-.85.11.79.3,1.43.62,2.04Z"/>
    <path class="st7" d="M146.29,37.8c0,.38-.24.89-.76.89-.18,0-.37-.27-.46-.33-.03-.35-.11-.7.01-1.09.1-.3.31-.45.59-.45.46.1.62.5.62.97ZM145.59,38.19c.05.02.15-.11.19-.14.06-.06.06-.23-.17-.3-.12-.03-.15.4-.02.44Z"/>
    <path class="st29" d="M79.95,97.34c1.58-.6,2.06.63,2.65-.45-.84-.37-1.91-.28-2.65.45Z"/>
    <path class="st30" d="M97.62,96.87c.6.27,1.13.28,1.83.25.1-.27-.22-.73-.53-.7-.45.05-.81.18-1.3.45Z"/>
    <path class="st42" d="M102.83,45.4l-.49.37c.12,0,.21.08.19.13l1.25-.19c.71-.11,1.37-.09,2.04-.08.11-.71-.82-.11-2.32-.17l-.4.17c-.13.06-.27-.05-.27-.24Z"/>
    <path class="st5" d="M113.22,89.27c.24.11.36.35.76.24-.17-.68-.25-1.21-.25-1.74-.37-.18-.52.59-.51,1.5Z"/>
    <path class="st60" d="M100.06,96.84h1.69c-.61-.47-1.39-.71-2.12-.37-.14.06.15.37.43.37Z"/>
    <path class="st44" d="M111.75,95.5c1.16-.3,1.94.27,1.96-.58-.59-.26-1.56-.14-1.96.58Z"/>
    <path class="st32" d="M131.72,25.17c.32.21,1,.3,1.45.3l-1.17-.6c-.37-.19-.73-.32-1.21-.32l.93.61Z"/>
    <path class="st47" d="M85.16,85.48c.28.03.51-.12.74-.25-.04-.03-.09-.09-.09-.09-.28-.13-.45.13-.65.19-.15.04-.05.16,0,.15Z"/>
    <path class="st88" d="M100.29,97.04c-.03.15.15.36.18.31.07-.09.22-.23.54-.23-.2-.22-.52-.11-.72-.08Z"/>
    <path class="st61" d="M142.18,22.58c.11-.18-.08-.5-.23-.49-.15.21.11.45.23.49Z"/>
    <path class="st43" d="M138.11,20.56c0,.21.04.43.31.54.1-.34-.16-.45-.31-.54Z"/>
    <path class="st56" d="M74.35,67.68c-.24,1.54,1.19,1.41.99,1.99.04.02.24-.03.19-.28,2.7.36,6.6-2.04,9.06-3.97l-3.65,2.11c-1.67.96-4.71,2.25-5.99,1.27-1.08-.83.23-2.74,1.8-3.68.7,2.67,6.44-1.6,6.48-2.03-.26-.02-.29.11-.53.27l-2.09,1.38c-.86.57-1.86,1.14-2.96,1.01-.45-.05-.59-.51-.62-.81-.1-.99,1.3-2.13,2.46-2.83l2.91-1.79c-.05-.05-.14-.08-.24-.07l-3.15,1.87c-1.06.7-1.99,1.55-2.27,2.82-1.17.59-2.08,1.56-2.39,2.74Z"/>
    <path class="st90" d="M94.8,54.18c.4.1.79.27,1.26.11.96-.33,1.83-.82,2.68-1.43l2.96-2.15c1.37-.99,2.83-1.63,4.5-1.74l2.11-.14c-2.34-.38-4.67.16-6.61,1.57l-2.95,2.15c-1.19.87-2.87,1.91-3.56,1.45-.3-.2-.37-.62-.21-.99l.16-.39c.06-.14-.04-.27-.15-.18-.35.7-.43,1.18-.18,1.74Z"/>
    <path class="st65" d="M107.09,60.75c-.06.3.07.92.53.9,1.06-.04,1.95-.64,2.69-1.18-.61-.29-1.59.45-2.84.11-.15-.04-.26-.1-.32-.05-.09.08-.07.17-.06.22Z"/>
    <path class="st76" d="M108.14,59.14c-.78.13-1.19,1.05-2.46,1.21-.33.04-.74-.25-.79-.52-.1-.46.1-.73.46-1.02-.44-.02-.78.08-1.08-.17-.23-.19-.28-.58-.06-1.02-.47.17-.39.51-.33.88.05.29.52.44.79.69.1.29-.13,1.01.33,1.25,1.01.52,2.28-.31,3.15-1.31Z"/>
    <path class="st68" d="M100.69,67.85c.08.88.55,1.94,1.55,1.97-.62-.47-1.13-.95-1.3-1.7-.28-1.23.23-2.35.94-3.41.24-.36.67-.62.61-1.18l-.97,1.35c-.45.63-.82,1.3-.82,2.17l-.16.38.15.41Z"/>
    <path class="st1" d="M105.99,62.09c-2.01,1.38-3.64,4.14-1.67,5.45-1.53-2.02-.04-3.47,1.67-5.45Z"/>
    <path class="st12" d="M94.64,71.51c.11.75.9,1.52,1.62,1.41-.54-.28-1.01-.63-1.24-.97-.87-1.27.56-3.19,1.81-4.55-.62.17-.85.73-1.21,1.13-.73.81-1.16,1.79-.98,2.99Z"/>
    <path class="st39" d="M110.32,60.46c-.74.54-1.63,1.14-2.69,1.18-.46.02-.59-.6-.53-.9-.08.04-.24.18-.22.27.02.1.07.29.04.38.98,1.07,3.12-.16,4.4-1.41.1.05.28.15.45.16-.16-.26-.1-.33-.02-.72l-1.42,1.03Z"/>
    <path class="st58" d="M98.81,71.32c-.27-.72-.88-1.43-.69-2.24.34-1.38,1-1.8,1.03-2.46-1.33,1.36-1.86,3.74-.35,4.7Z"/>
    <path class="st14" d="M83.93,69.9c.32.62,1.89.63,2.96-.19-.88,0-2.04.96-2.63.14-.43-.6-.12-1.23.2-1.82-.55.18-.88,1.19-.54,1.86Z"/>
    <path class="st83" d="M92.8,69.46c-.06.04-.27,0-.31.13-.29,1-1.63,2.18-.17,3.99.33-.36-.21-.64-.25-.82-.13-.52-.21-1.26,0-1.69l.74-1.61Z"/>
    <path class="st67" d="M105.38,56.3c.12,0,.03-.26-.24-.19-.73.68-1.91,1-2.24.29-.12-.25-.03-.7-.04-.98-.03-.06-.1-.09-.12-.09l-.04,1.45c.92.45,1.84.14,2.68-.49Z"/>
    <path class="st35" d="M90.17,61.43c-.43.39-.52,1.46-.08,1.88.48.46,1.46.36,1.89-.04-.53,0-1.04.32-1.46.05-.95-.59-.26-1.2-.35-1.89Z"/>
    <path class="st10" d="M107.48,50.01l3.15.39c-.49-.43-1.09-.26-1.59-.39s-.9-.21-1.56,0Z"/>
    <path class="st3" d="M86.7,70.64c.11.96,1.76,1.08,2.49.28-.94.34-1.76.39-2.49-.28Z"/>
    <path class="st83" d="M92.8,69.46c.28-.14.68-.38.85-.9-.38.12-.68.53-.85.9Z"/>
    <path class="st13" d="M90.17,61.43c.21-.18.43-.41.28-.85-.21.28-.32.54-.28.85Z"/>
    <path class="st56" d="M83.24,63.09c.19-.03.44-.22.69-.39-.18-.27-.32-.02-.43.02-.23.09-.24.12-.26.37Z"/>
    <path class="st23" d="M140.31,50.28l-.29-1.55-.32.48c-.44,1.16-1.14,2.04-2.11,2.84,1.11-.38,1.72-1.42,2.26-2.46.1.25.14.66-.11.95.34.1.44-.16.57-.25Z"/>
    <path class="st33" d="M102.98,81.88c-.16.22-.46.41-.45.82.54-.33.78-.73,1.08-1.11.21.44.66.01.83-.13.16-.16,0-.42-.28-.24-.03-.37.18-.52.31-.7-.04-.06.07-.15-.06-.32l-.83.86-.61.82Z"/>
    <path class="st23" d="M140.31,50.28c.86-.66,1.72-1.68,1.53-2.86-.26,1.08-.79,2.03-1.53,2.86Z"/>
    <path class="st37" d="M86.08,83.81c.08-.32.11-.59.55-.75-.24-.2-.32-.33-.18-.64-.43-.02-.77.17-1.28.43-.11.03,0,.28.25.15.11-.05.29-.21.38-.21.08,0,.2.18.24.28.02.05-.08.1-.13.26l-.13.41c-.04.13.24.12.3.06Z"/>
    <path class="st73" d="M135.78,52.84c.73,0,1.39-.45,1.67-1.17l-1.67,1.17Z"/>
    <path class="st28" d="M135.01,35.72c.63-.82,1.93-.69,2.68-.14s1.17,1.64.64,2.56c-.5.86-1.75,1.13-2.74.64-1.13-.55-1.34-2.07-.58-3.07ZM136.03,36.22c-.1.21.02.43.2.5s.35,0,.46-.18c.08-.13.09-.42-.24-.54-.21-.08-.37.12-.42.22Z"/>
    <path class="st41" d="M53.98,81.45c0,.16.53.15.57-.17,0-.16-.53-.13-.57.17Z"/>
    <path class="st90" d="M60.33,68.62c.14.04.22.04.29.06.13.04.37-.09.19-.34l-.48.28Z"/>
    <path class="st31" d="M145.61,37.75c-.12-.03-.15.4-.02.44.05.02.15-.11.19-.14.06-.06.06-.23-.17-.3Z"/>
    <path class="st51" d="M136.45,36c-.21-.08-.37.12-.42.22-.1.21.02.43.2.5s.35,0,.46-.18c.08-.13.09-.42-.24-.54Z"/>
  </g>
</svg>